<?xml version="1.0" standalone="no"?>
<!DOCTYPE svg PUBLIC "-//W3C//DTD SVG 20010904//EN"
 "http://www.w3.org/TR/2001/REC-SVG-20010904/DTD/svg10.dtd">
<svg version="1.0" xmlns="http://www.w3.org/2000/svg"
 width="589.000000pt" height="171.000000pt" viewBox="0 0 589.000000 171.000000"
 preserveAspectRatio="xMidYMid meet">

<g transform="translate(0.000000,171.000000) scale(0.100000,-0.100000)"
fill="#000000" stroke="none">
<path d="M582 1700 c-28 -12 -39 -40 -62 -155 -51 -250 -53 -666 -4 -816 22
-70 52 -92 128 -97 47 -3 73 1 101 14 44 21 64 56 45 79 -17 21 -22 19 -58
-15 -57 -54 -92 -32 -114 72 -11 52 -10 58 14 99 67 116 105 283 114 504 8
180 -4 254 -46 297 -30 29 -72 36 -118 18z m89 -172 c8 -29 9 -85 5 -168 -7
-144 -18 -216 -49 -315 l-22 -70 -3 190 c-3 172 8 348 24 389 11 29 33 16 45
-26z"/>
<path d="M2657 1614 c-4 -4 -7 -32 -7 -63 0 -31 -3 -86 -7 -123 l-6 -68 -67 0
c-143 0 -127 -59 23 -85 l38 -6 -3 -222 c-3 -259 8 -317 71 -388 70 -78 152
-60 213 47 l32 57 14 -41 c20 -60 67 -98 135 -106 35 -5 64 -3 76 3 29 16 70
73 90 126 l18 47 17 -47 c21 -53 63 -85 114 -85 24 0 43 10 74 39 l42 39 17
-38 c22 -48 51 -67 123 -81 71 -13 92 -2 137 74 l31 52 -6 -62 c-5 -61 -7 -63
-78 -135 -111 -111 -168 -239 -168 -380 0 -61 3 -71 31 -102 37 -43 79 -56
177 -56 69 0 76 2 101 29 47 50 53 88 58 333 l5 227 36 3 c29 2 37 7 37 23 0
15 -10 22 -37 29 l-38 10 0 125 c1 114 7 168 25 226 5 16 0 23 -26 32 l-31 12
6 64 c8 75 -8 127 -46 149 -46 26 -154 61 -190 61 -48 1 -91 -37 -123 -108
-32 -72 -45 -143 -52 -280 -4 -89 -10 -131 -25 -162 -32 -70 -78 -67 -98 6
-13 48 -13 152 2 208 11 44 10 47 -15 65 -25 18 -27 26 -27 86 0 99 -19 129
-106 164 -43 17 -88 28 -118 28 -43 0 -53 -4 -86 -37 -46 -47 -78 -130 -92
-238 -22 -174 -61 -297 -107 -339 -27 -24 -48 -15 -67 31 -13 31 -15 76 -13
270 3 164 8 236 16 244 8 8 52 14 115 15 83 3 104 7 106 19 5 24 -58 45 -135
45 -37 0 -73 4 -80 8 -9 6 -10 31 -3 102 13 130 13 126 -17 138 -40 16 -97 25
-106 16z m1150 -411 c22 -34 22 -101 0 -240 -21 -128 -49 -205 -88 -238 -35
-29 -51 -31 -73 -9 -25 25 -31 61 -31 189 1 198 55 325 139 325 28 0 40 -6 53
-27z m-577 -3 c11 -11 22 -30 24 -42 13 -63 13 -84 1 -98 -7 -8 -18 -63 -24
-122 -7 -59 -18 -129 -27 -157 -16 -56 -64 -104 -98 -99 -41 6 -51 50 -51 218
1 137 3 162 23 212 38 94 106 134 152 88z m588 -850 c-3 -113 -8 -165 -20
-192 -49 -111 -136 -102 -146 15 -8 97 47 249 127 347 l36 45 3 -30 c2 -17 2
-100 0 -185z"/>
<path d="M4579 1317 c-65 -44 -102 -150 -119 -342 -11 -124 -29 -196 -63 -246
-33 -49 -62 -50 -78 -2 -18 52 -15 212 6 303 30 129 29 127 4 141 -13 7 -55
15 -94 18 -69 6 -70 6 -73 36 -7 80 -22 91 -82 60 l-28 -15 5 -152 c3 -108 0
-176 -10 -231 -12 -69 -12 -80 1 -85 31 -12 55 49 73 188 14 110 23 132 52
128 21 -3 22 -6 19 -112 -7 -255 56 -400 166 -382 42 6 68 28 94 79 l19 39 22
-43 c29 -56 60 -76 128 -84 53 -7 58 -5 91 24 20 17 46 56 59 86 25 57 39 69
39 34 0 -12 17 -39 39 -60 31 -31 46 -39 76 -39 31 0 45 8 81 44 24 23 46 41
49 38 3 -3 5 -22 5 -43 0 -28 6 -42 22 -53 28 -20 127 -22 132 -3 2 6 11 66
20 132 8 66 23 145 33 175 l17 55 8 -140 c10 -174 18 -190 99 -190 l54 0 6 46
c9 59 52 200 82 268 l23 53 0 -123 c-1 -143 12 -196 57 -245 60 -65 144 -56
197 21 57 83 94 251 53 243 -9 -2 -19 -14 -23 -28 -45 -159 -65 -193 -109
-188 -20 2 -29 11 -39 43 -19 57 -11 265 13 323 17 41 17 43 -1 63 -29 32 -69
49 -113 49 l-39 0 -40 -102 c-22 -57 -53 -139 -69 -183 l-28 -80 -3 145 c-3
164 -5 170 -78 170 -55 0 -73 -22 -109 -137 -15 -49 -31 -97 -35 -108 -5 -12
-9 55 -9 161 -1 205 4 194 -83 194 l-38 0 0 -102 c-1 -186 -16 -306 -47 -368
-29 -57 -59 -74 -81 -47 -26 31 -36 127 -23 216 12 83 12 85 -10 102 -19 14
-23 30 -28 96 -8 102 -21 121 -108 156 -87 33 -139 35 -184 4z m176 -121 c31
-31 43 -104 22 -137 -8 -13 -18 -60 -21 -104 -14 -157 -43 -241 -91 -263 -70
-32 -90 14 -89 208 0 128 3 152 24 205 41 106 103 143 155 91z"/>
<path d="M919 1303 c-67 -57 -133 -254 -132 -398 0 -141 52 -220 170 -265 79
-30 133 -24 180 21 42 40 80 116 89 179 5 33 17 56 45 87 l38 41 -2 -126 c-3
-163 2 -172 83 -172 67 0 59 -10 80 105 13 68 44 168 64 204 12 22 14 12 18
-95 5 -128 16 -165 55 -183 58 -27 126 -4 166 55 l25 35 6 -25 c3 -14 21 -42
39 -62 85 -98 233 -98 325 -2 l33 35 28 -27 c35 -35 122 -55 208 -47 72 7 116
27 139 62 30 47 9 77 -138 195 -31 25 -64 59 -74 77 -16 28 -16 35 -3 69 11
29 23 42 52 53 35 13 40 13 67 -7 16 -12 36 -22 44 -22 21 0 54 47 62 87 10
54 -11 68 -99 67 -137 -3 -257 -75 -272 -163 -12 -74 20 -121 174 -250 66 -55
83 -87 56 -107 -31 -23 -70 -16 -126 22 -29 19 -62 36 -72 37 -13 1 -17 7 -12
22 3 11 9 46 12 78 5 53 4 57 -15 57 -17 0 -23 -10 -33 -54 -31 -142 -130
-212 -220 -159 -31 19 -69 85 -69 121 0 19 6 22 36 22 79 0 150 65 179 164 42
141 -16 250 -133 248 -55 0 -105 -38 -144 -108 -35 -63 -45 -96 -64 -219 -18
-118 -46 -178 -86 -183 -38 -4 -43 20 -40 181 3 155 -9 202 -51 212 -50 13
-92 -36 -138 -160 -12 -33 -26 -64 -31 -70 -4 -5 -8 64 -8 153 l0 161 -39 12
c-62 18 -71 10 -71 -65 0 -76 -28 -161 -65 -196 l-25 -23 0 29 c-1 16 -6 61
-13 100 -10 57 -20 79 -51 117 -85 104 -181 135 -247 80z m165 -82 c25 -28 44
-99 52 -196 l7 -85 -36 -15 c-84 -35 -159 -10 -178 57 -35 131 85 316 155 239z
m976 -51 c20 -38 -14 -162 -58 -212 -18 -21 -68 -24 -75 -5 -12 32 25 158 60
205 27 36 57 41 73 12z m-1045 -350 c17 0 47 5 68 11 48 13 53 8 37 -31 -21
-50 -65 -80 -116 -80 -60 0 -94 32 -94 88 l0 40 38 -14 c20 -7 51 -13 67 -14z"/>
<path d="M250 1271 c-94 -29 -186 -116 -217 -204 -12 -36 -18 -83 -18 -153 0
-92 2 -105 30 -159 39 -76 90 -114 167 -122 107 -11 200 42 248 141 40 84 5
115 -39 34 -35 -63 -57 -85 -98 -99 -42 -14 -93 -5 -127 22 -34 27 -56 104
-56 199 0 95 21 170 62 216 26 30 36 35 67 32 32 -3 39 -9 63 -53 17 -32 34
-50 45 -50 16 0 18 11 21 91 3 89 2 91 -23 102 -29 13 -87 14 -125 3z"/>
</g>
</svg>
